<mxfile host="app.diagrams.net" modified="2021-04-12T07:10:34.982Z" agent="5.0 (Macintosh; Intel Mac OS X 11_2_3) AppleWebKit/537.36 (KHTML, like Gecko) Chrome/89.0.4389.114 Safari/537.36" etag="GVCfdTlZF_fMowYxzjYl" version="14.5.10" type="github">
  <diagram id="egXMzA5UWLXAuYc3l472" name="Page-1">
    <mxGraphModel dx="1843" dy="1823" grid="1" gridSize="10" guides="1" tooltips="1" connect="1" arrows="1" fold="1" page="0" pageScale="1" pageWidth="827" pageHeight="1169" math="0" shadow="0">
      <root>
        <mxCell id="0" />
        <mxCell id="1" parent="0" />
        <mxCell id="uSGm3zNpoxRwYYH2sIDU-11" value="" style="group" vertex="1" connectable="0" parent="1">
          <mxGeometry x="60" y="100" width="300" height="300" as="geometry" />
        </mxCell>
        <mxCell id="uSGm3zNpoxRwYYH2sIDU-1" value="" style="rounded=1;whiteSpace=wrap;html=1;strokeWidth=2;" vertex="1" parent="uSGm3zNpoxRwYYH2sIDU-11">
          <mxGeometry width="300" height="300" as="geometry" />
        </mxCell>
        <mxCell id="uSGm3zNpoxRwYYH2sIDU-5" value="&lt;font style=&quot;font-size: 30px&quot;&gt;钱包&lt;/font&gt;" style="ellipse;whiteSpace=wrap;html=1;aspect=fixed;" vertex="1" parent="uSGm3zNpoxRwYYH2sIDU-11">
          <mxGeometry x="10" y="10" width="130" height="130" as="geometry" />
        </mxCell>
        <mxCell id="uSGm3zNpoxRwYYH2sIDU-8" value="&lt;font style=&quot;font-size: 30px&quot;&gt;区块链&lt;br&gt;数据&lt;/font&gt;" style="ellipse;whiteSpace=wrap;html=1;aspect=fixed;" vertex="1" parent="uSGm3zNpoxRwYYH2sIDU-11">
          <mxGeometry x="10" y="160" width="130" height="130" as="geometry" />
        </mxCell>
        <mxCell id="uSGm3zNpoxRwYYH2sIDU-9" value="&lt;font style=&quot;font-size: 30px&quot;&gt;矿工&lt;/font&gt;" style="ellipse;whiteSpace=wrap;html=1;aspect=fixed;" vertex="1" parent="uSGm3zNpoxRwYYH2sIDU-11">
          <mxGeometry x="160" y="10" width="130" height="130" as="geometry" />
        </mxCell>
        <mxCell id="uSGm3zNpoxRwYYH2sIDU-10" value="&lt;font style=&quot;font-size: 30px&quot;&gt;P2P网络&lt;/font&gt;" style="ellipse;whiteSpace=wrap;html=1;aspect=fixed;" vertex="1" parent="uSGm3zNpoxRwYYH2sIDU-11">
          <mxGeometry x="160" y="160" width="130" height="130" as="geometry" />
        </mxCell>
        <mxCell id="uSGm3zNpoxRwYYH2sIDU-13" value="" style="group" vertex="1" connectable="0" parent="1">
          <mxGeometry x="1230" y="-420" width="300" height="300" as="geometry" />
        </mxCell>
        <mxCell id="uSGm3zNpoxRwYYH2sIDU-14" value="" style="rounded=1;whiteSpace=wrap;html=1;strokeWidth=2;" vertex="1" parent="uSGm3zNpoxRwYYH2sIDU-13">
          <mxGeometry width="300" height="300" as="geometry" />
        </mxCell>
        <mxCell id="uSGm3zNpoxRwYYH2sIDU-16" value="&lt;font style=&quot;font-size: 30px&quot;&gt;区块链&lt;br&gt;数据&lt;/font&gt;" style="ellipse;whiteSpace=wrap;html=1;aspect=fixed;" vertex="1" parent="uSGm3zNpoxRwYYH2sIDU-13">
          <mxGeometry x="10" y="160" width="130" height="130" as="geometry" />
        </mxCell>
        <mxCell id="uSGm3zNpoxRwYYH2sIDU-17" value="&lt;font style=&quot;font-size: 30px&quot;&gt;矿工&lt;/font&gt;" style="ellipse;whiteSpace=wrap;html=1;aspect=fixed;" vertex="1" parent="uSGm3zNpoxRwYYH2sIDU-13">
          <mxGeometry x="160" y="10" width="130" height="130" as="geometry" />
        </mxCell>
        <mxCell id="uSGm3zNpoxRwYYH2sIDU-18" value="&lt;font style=&quot;font-size: 30px&quot;&gt;P2P网络&lt;/font&gt;" style="ellipse;whiteSpace=wrap;html=1;aspect=fixed;" vertex="1" parent="uSGm3zNpoxRwYYH2sIDU-13">
          <mxGeometry x="160" y="160" width="130" height="130" as="geometry" />
        </mxCell>
        <mxCell id="uSGm3zNpoxRwYYH2sIDU-19" value="" style="group" vertex="1" connectable="0" parent="1">
          <mxGeometry x="930" y="-130" width="300" height="300" as="geometry" />
        </mxCell>
        <mxCell id="uSGm3zNpoxRwYYH2sIDU-20" value="" style="rounded=1;whiteSpace=wrap;html=1;strokeWidth=2;" vertex="1" parent="uSGm3zNpoxRwYYH2sIDU-19">
          <mxGeometry width="300" height="300" as="geometry" />
        </mxCell>
        <mxCell id="uSGm3zNpoxRwYYH2sIDU-22" value="&lt;font style=&quot;font-size: 30px&quot;&gt;区块链&lt;br&gt;数据&lt;/font&gt;" style="ellipse;whiteSpace=wrap;html=1;aspect=fixed;" vertex="1" parent="uSGm3zNpoxRwYYH2sIDU-19">
          <mxGeometry x="10" y="160" width="130" height="130" as="geometry" />
        </mxCell>
        <mxCell id="uSGm3zNpoxRwYYH2sIDU-24" value="&lt;font style=&quot;font-size: 30px&quot;&gt;P2P网络&lt;/font&gt;" style="ellipse;whiteSpace=wrap;html=1;aspect=fixed;" vertex="1" parent="uSGm3zNpoxRwYYH2sIDU-19">
          <mxGeometry x="160" y="160" width="130" height="130" as="geometry" />
        </mxCell>
        <mxCell id="uSGm3zNpoxRwYYH2sIDU-33" value="" style="group" vertex="1" connectable="0" parent="1">
          <mxGeometry x="1230" y="160" width="300" height="300" as="geometry" />
        </mxCell>
        <mxCell id="uSGm3zNpoxRwYYH2sIDU-34" value="" style="rounded=1;whiteSpace=wrap;html=1;strokeWidth=2;" vertex="1" parent="uSGm3zNpoxRwYYH2sIDU-33">
          <mxGeometry width="300" height="300" as="geometry" />
        </mxCell>
        <mxCell id="uSGm3zNpoxRwYYH2sIDU-35" value="&lt;font style=&quot;font-size: 30px&quot;&gt;区块链&lt;br&gt;数据&lt;/font&gt;" style="ellipse;whiteSpace=wrap;html=1;aspect=fixed;" vertex="1" parent="uSGm3zNpoxRwYYH2sIDU-33">
          <mxGeometry x="10" y="160" width="130" height="130" as="geometry" />
        </mxCell>
        <mxCell id="uSGm3zNpoxRwYYH2sIDU-36" value="&lt;font style=&quot;font-size: 30px&quot;&gt;P2P网络&lt;/font&gt;" style="ellipse;whiteSpace=wrap;html=1;aspect=fixed;" vertex="1" parent="uSGm3zNpoxRwYYH2sIDU-33">
          <mxGeometry x="160" y="160" width="130" height="130" as="geometry" />
        </mxCell>
        <mxCell id="uSGm3zNpoxRwYYH2sIDU-38" value="" style="group" vertex="1" connectable="0" parent="1">
          <mxGeometry x="1540" y="-130" width="300" height="300" as="geometry" />
        </mxCell>
        <mxCell id="uSGm3zNpoxRwYYH2sIDU-39" value="" style="rounded=1;whiteSpace=wrap;html=1;strokeWidth=2;" vertex="1" parent="uSGm3zNpoxRwYYH2sIDU-38">
          <mxGeometry width="300" height="300" as="geometry" />
        </mxCell>
        <mxCell id="uSGm3zNpoxRwYYH2sIDU-40" value="&lt;font style=&quot;font-size: 30px&quot;&gt;区块链&lt;br&gt;数据&lt;/font&gt;" style="ellipse;whiteSpace=wrap;html=1;aspect=fixed;" vertex="1" parent="uSGm3zNpoxRwYYH2sIDU-38">
          <mxGeometry x="10" y="160" width="130" height="130" as="geometry" />
        </mxCell>
        <mxCell id="uSGm3zNpoxRwYYH2sIDU-41" value="&lt;font style=&quot;font-size: 30px&quot;&gt;P2P网络&lt;/font&gt;" style="ellipse;whiteSpace=wrap;html=1;aspect=fixed;" vertex="1" parent="uSGm3zNpoxRwYYH2sIDU-38">
          <mxGeometry x="160" y="160" width="130" height="130" as="geometry" />
        </mxCell>
      </root>
    </mxGraphModel>
  </diagram>
</mxfile>
